<?xml version="1.0" encoding="UTF-8"?>
<svg version="1.1" xmlns="http://www.w3.org/2000/svg" width="1080" height="1080">
<path d="M0 0 C5.69269121 4.10051664 10.27616764 8.48648784 13 15 C13.64518295 21.15519368 12.03184055 24.47347044 9 29.5625 C-1.95894338 49.29721022 -7.10904407 71.42676182 -13.06721497 93.0458374 C-14.94543733 99.84599151 -16.92701897 106.61282761 -18.9375 113.375 C-23.53657917 129.06831422 -26.75295949 144.69056452 -29.25048828 160.84619141 C-29.44884277 162.09964355 -29.64719727 163.3530957 -29.8515625 164.64453125 C-30.02510254 165.77221924 -30.19864258 166.89990723 -30.37744141 168.06176758 C-30.93943074 170.71413687 -31.65000901 172.66893981 -33 175 C-33.66 175 -34.32 175 -35 175 C-35.66 174.01 -36.32 173.02 -37 172 C-37.66 172.99 -38.32 173.98 -39 175 C-45.58611321 170.39135502 -51.51345316 165.97221814 -54 158 C-56.66923902 126.90026169 -47.34412772 94.35779134 -38 65 C-39.32 65 -40.64 65 -42 65 C-42.22042969 65.55816406 -42.44085937 66.11632812 -42.66796875 66.69140625 C-44.42422622 69.73524252 -46.67550536 71.62165491 -49.3125 73.9375 C-52.99755638 77.19020325 -56.54914513 80.49961132 -60 84 C-60.80179688 84.79019531 -61.60359375 85.58039063 -62.4296875 86.39453125 C-63.23664062 87.19246094 -64.04359375 87.99039063 -64.875 88.8125 C-65.67679688 89.60269531 -66.47859375 90.39289063 -67.3046875 91.20703125 C-69.28623827 93.26037733 -71.13277429 95.31181171 -72.9765625 97.48046875 C-79.02647478 104.45615372 -85.75898987 110.81238822 -92.32080078 117.30029297 C-100.9511865 125.83393275 -100.9511865 125.83393275 -109.07275391 134.84570312 C-113.94493192 140.29187729 -119.25418318 145.3531604 -124.4375 150.5 C-128.583125 154.625 -132.72875 158.75 -137 163 C-104.825 163.495 -104.825 163.495 -72 164 C-69.669375 172.064375 -67.33875 180.12875 -64.9375 188.4375 C-64.21812256 190.92466553 -63.49874512 193.41183105 -62.75756836 195.97436523 C-62.1597195 198.04402895 -61.56213733 200.11376972 -60.96484375 202.18359375 C-60.64120346 203.30495224 -60.31756317 204.42631073 -59.9841156 205.58164978 C-57.32522593 214.81812673 -54.72829768 224.07133051 -52.17308044 233.33702087 C-51.76558311 234.8061367 -51.76558311 234.8061367 -51.34985352 236.30493164 C-50.99359642 237.59712364 -50.99359642 237.59712364 -50.63014221 238.91542053 C-50.05448251 241.03209712 -50.05448251 241.03209712 -49 243 C-43.38204209 236.4583933 -37.84705819 229.87758498 -32.5625 223.0625 C-28.30604268 217.58052527 -23.87540567 212.2816447 -19.33569336 207.03271484 C-15.64334394 202.76214649 -12.03968808 198.42944743 -8.48046875 194.046875 C-4.75159376 189.46652462 -0.98665836 184.91592522 2.77685547 180.36401367 C3.33646973 179.6857251 3.89608398 179.00743652 4.47265625 178.30859375 C5.01855911 177.66249838 5.56446198 177.01640301 6.12690735 176.35072899 C8.04574566 174.02223687 8.04574566 174.02223687 9.65913391 171.43165016 C14.33277438 164.5548436 14.33277438 164.5548436 18.72114563 163.09441757 C21.9816522 162.77019529 25.10767816 162.76146378 28.3828125 162.86474609 C29.60317703 162.86328583 30.82354156 162.86182556 32.08088684 162.86032104 C35.40716313 162.86607126 38.72712854 162.9159654 42.05228806 162.98606062 C45.53409721 163.04884752 49.0160031 163.05446888 52.49829102 163.0663147 C59.08265548 163.09731797 65.66534692 163.17926606 72.24897671 163.27980959 C79.74817769 163.39183352 87.24746132 163.4466275 94.74729156 163.49676394 C110.16582786 163.60111162 125.58269767 163.77684329 141 164 C138.20944508 168.27057929 135.3199439 171.97760624 131.8125 175.6875 C128.24729487 179.49952246 124.8283918 183.36109491 121.5625 187.4375 C117.71954521 192.21541338 113.63168671 196.68994984 109.44384766 201.16162109 C105.52093146 205.37429105 101.88088976 209.76413555 98.27734375 214.25390625 C95.33922549 217.79678299 92.21768822 221.15441772 89.08349609 224.52197266 C86.11269934 227.73316873 83.30031679 231.02636841 80.5625 234.4375 C76.71889943 239.21621628 72.63039836 243.69157687 68.44165039 248.16381836 C65.32446055 251.51099327 62.36426202 254.93005023 59.5 258.5 C56.15698041 262.6666621 52.64884863 266.60419812 49 270.5 C44.54125556 275.26088994 40.3620217 280.1646782 36.27734375 285.25390625 C33.33922549 288.79678299 30.21768822 292.15441772 27.08349609 295.52197266 C24.11269934 298.73316873 21.30031679 302.02636841 18.5625 305.4375 C14.71954521 310.21541338 10.63168671 314.68994984 6.44384766 319.16162109 C2.52465269 323.37029497 -1.11312279 327.75473134 -4.7109375 332.2421875 C-8.08650974 336.3090032 -11.69688633 340.1381833 -15.32421875 343.98046875 C-16.21634351 344.98680396 -17.10826706 345.99331758 -18 347 C-18.45622742 347.45737045 -18.91245483 347.91474091 -19.38250732 348.38597107 C-25.64110995 355.45350648 -27.13814997 364.84657733 -29.44140625 373.7421875 C-29.93492315 375.59377919 -30.43006518 377.4449384 -30.92674255 379.29568481 C-32.22782852 384.16066166 -33.50750108 389.03101643 -34.7824707 393.90289307 C-36.06853788 398.80313102 -37.37361949 403.69829017 -38.67773438 408.59375 C-40.15156933 414.12964121 -41.62370153 419.66591955 -43.08070374 425.20626831 C-45.27389468 433.54472141 -47.48818374 441.87700445 -49.76928711 450.19189453 C-49.97894639 450.96482283 -50.18860567 451.73775112 -50.40461826 452.53410149 C-51.88349511 457.88349511 -51.88349511 457.88349511 -53 459 C-55.89143151 459.09523905 -58.75892064 459.12553027 -61.65063477 459.11352539 C-63.0114769 459.11374443 -63.0114769 459.11374443 -64.39981079 459.1139679 C-67.41369985 459.11326841 -70.42752793 459.10547434 -73.44140625 459.09765625 C-75.52505967 459.0957922 -77.60871354 459.09436824 -79.69236755 459.09336853 C-85.18823446 459.08954234 -90.68407513 459.0797112 -96.17993164 459.06866455 C-101.78336227 459.0584526 -107.38679713 459.05387137 -112.99023438 459.04882812 C-123.99350114 459.03808902 -134.99674839 459.02101139 -146 459 C-145.37987481 456.26964299 -144.75409113 453.54079236 -144.125 450.8125 C-143.86396484 449.65911133 -143.86396484 449.65911133 -143.59765625 448.48242188 C-143.33662109 447.35610352 -143.33662109 447.35610352 -143.0703125 446.20703125 C-142.83465576 445.17799683 -142.83465576 445.17799683 -142.59423828 444.12817383 C-141.91422385 441.69280578 -140.9390705 439.34767625 -140 437 C-105.35 436.505 -105.35 436.505 -70 436 C-68.29972656 429.48636719 -66.59945312 422.97273438 -64.84765625 416.26171875 C-63.75245953 412.11826138 -62.65561556 407.97538436 -61.55273438 403.83398438 C-59.80549001 397.27231578 -58.06430493 390.70947448 -56.36010742 384.13647461 C-54.98446092 378.83229363 -53.58093314 373.53619778 -52.15844536 368.2443943 C-51.62279306 366.23258227 -51.09693756 364.21813331 -50.58146858 362.20105553 C-47.57710848 350.47469576 -44.8641388 341.63944461 -36 333 C-35.07732039 331.97412639 -34.15949722 330.94382851 -33.25 329.90625 C-32.5075 329.1121875 -31.765 328.318125 -31 327.5 C-27.72581577 323.94329756 -24.59357567 320.32838189 -21.5625 316.5625 C-17.90364231 312.0260327 -14.05131037 307.741339 -10.08398438 303.47851562 C-7.1129881 300.26718772 -4.30046168 296.97381211 -1.5625 293.5625 C2.28110057 288.78378372 6.36960164 284.30842313 10.55834961 279.83618164 C13.67553945 276.48900673 16.63573798 273.06994977 19.5 269.5 C22.84301959 265.3333379 26.35115137 261.39580188 30 257.5 C34.45874444 252.73911006 38.6379783 247.8353218 42.72265625 242.74609375 C45.66077451 239.20321701 48.78231178 235.84558228 51.91650391 232.47802734 C54.88730066 229.26683127 57.69968321 225.97363159 60.4375 222.5625 C63.80347455 218.37761215 67.33186895 214.41697412 71 210.5 C75.53049626 205.65982424 79.81484752 200.7086583 83.96484375 195.53515625 C86.27399304 192.65869197 88.63573695 189.83132602 91 187 C82.84603498 186.69719926 74.69445986 186.46704472 66.53624249 186.32644176 C62.74665407 186.25891242 58.96094102 186.16755907 55.17358398 186.01928711 C38.00884897 184.44774162 38.00884897 184.44774162 22.65405273 189.76708984 C19.71329468 192.8501692 17.91007086 196.21236895 16 200 C14.60504441 201.78409785 13.17351451 203.54100406 11.6875 205.25 C10.96691406 206.13429688 10.24632812 207.01859375 9.50390625 207.9296875 C2.11448651 216.99066085 -5.29805913 226.03242103 -12.875 234.9375 C-16.56996984 239.28134581 -20.17402536 243.68511905 -23.71875 248.15234375 C-31.4146086 257.75898916 -39.29049496 267.22353279 -47.28808594 276.58007812 C-50.5696584 280.43697518 -53.66340049 284.40712488 -56.66015625 288.48828125 C-57.10230469 288.98714844 -57.54445313 289.48601562 -58 290 C-58.66 290 -59.32 290 -60 290 C-67.74281687 263.31902769 -75.43105878 236.6235541 -82.9375 209.875 C-83.24576721 208.77980042 -83.55403442 207.68460083 -83.87164307 206.55621338 C-84.73888138 203.47315819 -85.60251298 200.38911842 -86.46484375 197.3046875 C-86.85280876 195.92709259 -86.85280876 195.92709259 -87.24861145 194.52166748 C-87.48102036 193.68677795 -87.71342926 192.85188843 -87.95288086 191.99169922 C-88.15634628 191.26473846 -88.35981171 190.53777771 -88.56944275 189.78878784 C-89 188 -89 188 -89 186 C-132.77163151 180.66499624 -132.77163151 180.66499624 -172.2265625 194.61328125 C-179.8424097 201.48376314 -186.25138687 209.54249738 -192.00561523 218.00830078 C-195.08565702 222.39971709 -198.90461938 225.58653703 -203 229 C-204.35816125 230.32790445 -205.69968251 231.67356372 -207.0078125 233.05078125 C-214.82551366 241.15390999 -222.49190722 248.42904892 -231.92382812 254.6171875 C-234.38834592 256.25865373 -236.81024712 257.95571648 -239.234375 259.65625 C-249.52166546 266.83858122 -259.74133625 273.44975197 -271 279 C-271.77214844 279.41507813 -272.54429687 279.83015625 -273.33984375 280.2578125 C-278.33765895 282.92991171 -283.51666276 284.59562162 -289 286 C-289.72703125 286.18691406 -290.4540625 286.37382813 -291.203125 286.56640625 C-309.76281576 289.44367675 -328.47227838 285.81459527 -343.77001953 274.71582031 C-368.0327135 255.36520549 -375.81109095 223.20658516 -379.26124573 193.77114868 C-379.87675428 188.05931513 -380.18360135 182.40701279 -380.23828125 176.6640625 C-380.24812042 175.79988205 -380.25795959 174.9357016 -380.26809692 174.04533386 C-380.60995023 136.04687747 -375.33477573 99.93309763 -368.56948853 62.62594604 C-368.15340069 60.32916376 -367.74062103 58.03180463 -367.328125 55.734375 C-367.2040477 55.05703812 -367.0799704 54.37970123 -366.95213318 53.68183899 C-365.90132325 47.81347536 -365.33238437 41.94853406 -365 36 C-369.99200853 37.96903497 -374.2348282 40.30655901 -378.5625 43.5 C-379.1618335 43.93650879 -379.76116699 44.37301758 -380.37866211 44.82275391 C-382.26134026 46.20363017 -384.13263358 47.59849853 -386 49 C-386.59296875 49.4444043 -387.1859375 49.88880859 -387.796875 50.34667969 C-396.04868462 56.57661339 -403.73182816 63.25964228 -411.23706055 70.36450195 C-413.295738 72.27435935 -415.40086165 74.12739108 -417.50390625 75.98828125 C-423.65923727 81.51386656 -429.4956521 87.3451717 -435.33276367 93.20239258 C-437.19142108 95.06643244 -439.05539614 96.92503512 -440.91992188 98.78320312 C-446.82831592 104.68829666 -452.59123973 110.62823294 -458 117 C-459.61967817 118.77570221 -461.24411718 120.54708307 -462.875 122.3125 C-466.91279322 126.74496474 -470.77307434 131.27742177 -474.53515625 135.9453125 C-476.34085175 138.1831158 -478.15979312 140.40481899 -479.99609375 142.6171875 C-511.73166308 180.98969325 -543.32285521 227.77679657 -558.02563477 275.81323242 C-558.93194777 278.64870247 -559.79277323 280.76979809 -561.796875 282.99609375 C-566.32343501 285.05872837 -571.3649462 283.17578134 -576 282 C-581.64893617 279.70212766 -581.64893617 279.70212766 -583 277 C-583.63550667 269.85462378 -581.71640795 264.42072398 -579.125 257.8125 C-578.72369873 256.76747314 -578.32239746 255.72244629 -577.90893555 254.64575195 C-572.29339837 240.2930071 -565.61252573 226.39916891 -558 213 C-557.67 212.34 -557.34 211.68 -557 211 C-556.34 211 -555.68 211 -555 211 C-554.88785156 210.4426416 -554.77570313 209.8852832 -554.66015625 209.31103516 C-552.01856477 200.06351112 -545.24937611 191.55152795 -540 183.625 C-539.25400241 182.49206653 -538.50832048 181.35892515 -537.76293945 180.22558594 C-531.33954315 170.46991843 -524.88270313 160.73503433 -518.36083984 151.04492188 C-517.49155824 149.73866018 -516.63617521 148.42297004 -515.79931641 147.09570312 C-514.91396664 145.69902618 -513.96423524 144.34342887 -513 143 C-512.34 143 -511.68 143 -511 143 C-510.74476563 142.44570313 -510.48953125 141.89140625 -510.2265625 141.3203125 C-505.7639081 132.87822105 -499.04824961 125.35128364 -493 118 C-492.18917969 117.01386719 -491.37835938 116.02773438 -490.54296875 115.01171875 C-480.36189067 102.74810428 -469.36812833 91.28906329 -458.125 80 C-457.34060547 79.21093262 -456.55621094 78.42186523 -455.74804688 77.60888672 C-451.56510816 73.43747859 -447.29944394 69.43089409 -442.82226562 65.57714844 C-440.21688501 63.32222363 -437.70884796 60.97355628 -435.1875 58.625 C-429.64127143 53.51406053 -423.91412623 48.68180025 -418 44 C-417.34757324 43.48034668 -416.69514648 42.96069336 -416.02294922 42.42529297 C-407.92020164 35.98464746 -399.74373595 29.66918134 -391.25 23.75 C-390.60716064 23.29641113 -389.96432129 22.84282227 -389.30200195 22.37548828 C-381.23959953 16.85434488 -373.66529815 16.03953627 -364 17 C-355.38097038 19.07745669 -347.58254703 22.93558694 -342 30 C-339.89694723 34.99392626 -339.68051714 39.41188795 -339.73828125 44.734375 C-339.74641594 45.98441315 -339.74641594 45.98441315 -339.75471497 47.25970459 C-339.8797034 55.21416139 -340.73928023 63.00195172 -341.85140991 70.87149048 C-342.20079649 73.34409925 -342.53429063 75.8184622 -342.86450195 78.29370117 C-343.33086309 81.77849799 -343.80320786 85.26239186 -344.28125 88.74560547 C-358.88201506 178.20423528 -358.88201506 178.20423528 -331.77783203 261.63134766 C-325.73582609 269.44505459 -325.73582609 269.44505459 -317.0546875 273.2578125 C-294.44545838 271.88018922 -272.64255892 252.88529975 -256 239 C-255.42733398 238.52353027 -254.85466797 238.04706055 -254.26464844 237.55615234 C-242.8758491 228.03411212 -231.86165871 218.09646399 -221.51171875 207.44921875 C-219.44283364 205.43181445 -217.33992957 203.55465527 -215.1484375 201.67578125 C-211.12744266 198.18641847 -207.52432351 194.42786574 -203.9375 190.5 C-198.16614023 184.2540411 -192.26293492 178.17509262 -186.18725586 172.22460938 C-183.22635755 169.3062634 -180.39470601 166.3437986 -177.6875 163.1875 C-172.58535113 157.27675164 -166.94165244 151.89774718 -161.3828125 146.421875 C-160.53460937 145.58140625 -159.68640625 144.7409375 -158.8125 143.875 C-158.05582031 143.12992188 -157.29914063 142.38484375 -156.51953125 141.6171875 C-154.54693227 139.56813119 -152.69151255 137.49778296 -150.84179688 135.34179688 C-146.37807035 130.20227511 -141.5517061 125.44590645 -136.71875 120.65625 C-135.73631622 119.67823581 -134.75418512 118.69991749 -133.77233887 117.72131348 C-130.16280682 114.12501016 -126.54779294 110.53423404 -122.93292236 106.94329834 C-119.8661925 103.89644421 -116.80162086 100.84744874 -113.73976135 97.79570007 C-112.32008843 96.38241371 -110.89733001 94.97222889 -109.4744873 93.56213379 C-105.07374127 89.17794786 -100.84356766 84.73821515 -96.79855347 80.02563477 C-93.13667447 75.9014152 -89.17961857 72.05876626 -85.26953125 68.171875 C-83.90026741 66.80473358 -83.90026741 66.80473358 -82.50334167 65.40997314 C-80.09874738 63.00915847 -77.69116709 60.61136104 -75.28289795 58.2142334 C-72.83325621 55.77486163 -70.38647346 53.33262589 -67.93945312 50.890625 C-63.63802152 46.59870816 -59.33413141 42.30926732 -55.02839661 38.02166748 C-53.01671156 36.01665612 -51.00777754 34.00892358 -49 32 C-57.77631651 33.4705211 -66.40911583 35.43746852 -75.0625 37.5 C-77.65705553 38.11672543 -80.25221703 38.73073699 -82.84765625 39.34375 C-84.08217529 39.63572266 -85.31669434 39.92769531 -86.58862305 40.22851562 C-89.43658357 40.87258313 -92.27468562 41.42712397 -95.1484375 41.9375 C-101.18700062 43.11575622 -106.82637288 45.3163607 -112.5625 47.5 C-113.72910156 47.93779785 -114.89570312 48.3755957 -116.09765625 48.82666016 C-125.28499352 52.29542448 -134.41601221 55.90296414 -143.51391602 59.59960938 C-167.84175628 69.47284783 -167.84175628 69.47284783 -178.4375 65.8125 C-182.97505619 62.60300903 -186.59750692 59.05788017 -189 54 C-189.04655046 52.33398354 -189.05275134 50.66583165 -189 49 C-187.9805127 48.60417725 -186.96102539 48.20835449 -185.91064453 47.80053711 C-178.05912126 44.75033775 -170.21062983 41.69272267 -162.36883545 38.61758423 C-158.25579969 37.00591552 -154.14070898 35.39953109 -150.02539062 33.79370117 C-147.93505505 32.97677911 -145.8455269 32.15778778 -143.75683594 31.33666992 C-122.67205408 23.05147014 -101.45294084 15.57556629 -79.5 9.9375 C-78.31221451 9.62824585 -78.31221451 9.62824585 -77.10043335 9.31274414 C-13.36498019 -7.27332001 -13.36498019 -7.27332001 0 0 Z " fill="#FFFFFF" transform="translate(800,309)"/>
<path d="M0 0 C3.96 0 7.92 0 12 0 C15.63 10.23 19.26 20.46 23 31 C23.28931867 21.17214693 23.28931867 21.17214693 23.56811523 11.34399414 C23.60622314 10.12832764 23.64433105 8.91266113 23.68359375 7.66015625 C23.72025146 6.40855713 23.75690918 5.15695801 23.79467773 3.86743164 C24 1 24 1 25 0 C28.96 0 32.92 0 37 0 C37 22.77 37 45.54 37 69 C33.04 69 29.08 69 25 69 C22.09527359 61.84285881 19.3693978 54.64089508 16.75 47.375 C15.5125 43.95125 14.275 40.5275 13 37 C12.67 47.56 12.34 58.12 12 69 C8.04 69 4.08 69 0 69 C0 46.23 0 23.46 0 0 Z " fill="#FFFFFF" transform="translate(213,617)"/>
<path d="M0 0 C2.20922852 0.03881836 2.20922852 0.03881836 4.25 0.5625 C5.55444336 1.96313477 5.55444336 1.96313477 6.65234375 3.87890625 C7.07080566 4.604729 7.48926758 5.33055176 7.92041016 6.07836914 C10.39205759 10.69625614 12.75232714 15.36196137 15.0625 20.0625 C15.81563477 21.58230469 15.81563477 21.58230469 16.58398438 23.1328125 C17.80969208 25.60757472 19.03159837 28.08413489 20.25 30.5625 C20.27505615 29.68924072 20.3001123 28.81598145 20.32592773 27.91625977 C20.42087709 24.68647448 20.52012029 21.45685846 20.62231445 18.22729492 C20.66571434 16.82760801 20.70738564 15.42786641 20.74731445 14.02807617 C20.80489445 12.01988505 20.86914 10.01188851 20.93359375 8.00390625 C20.97025146 6.79420166 21.00690918 5.58449707 21.04467773 4.33813477 C21.25 1.5625 21.25 1.5625 22.25 0.5625 C23.74738124 0.4645943 25.24942892 0.43275136 26.75 0.4375 C27.5646875 0.43492187 28.379375 0.43234375 29.21875 0.4296875 C31.25 0.5625 31.25 0.5625 32.25 1.5625 C32.34386381 3.4343094 32.36743804 5.3096806 32.36352539 7.18383789 C32.36344986 8.38500748 32.36337433 9.58617706 32.36329651 10.82374573 C32.35813522 12.1310112 32.35297394 13.43827667 32.34765625 14.78515625 C32.34579198 16.12894132 32.34436812 17.47272707 32.34336853 18.81651306 C32.33954402 22.35932277 32.32971432 25.9020917 32.31866455 29.44488525 C32.30844899 33.05765227 32.3038706 36.67042584 32.29882812 40.28320312 C32.28809198 47.3763188 32.27101636 54.46940674 32.25 61.5625 C28.95 61.5625 25.65 61.5625 22.25 61.5625 C20.66294824 58.58526358 19.0802997 55.60581812 17.5 52.625 C17.0565625 51.79419922 16.613125 50.96339844 16.15625 50.10742188 C13.28634465 44.68414486 10.66200997 39.20445401 8.25 33.5625 C8.22494385 34.37517334 8.1998877 35.18784668 8.17407227 36.02514648 C8.05850882 39.68360752 7.93560416 43.34178528 7.8125 47 C7.75352539 48.9190918 7.75352539 48.9190918 7.69335938 50.87695312 C7.65146484 52.09189453 7.60957031 53.30683594 7.56640625 54.55859375 C7.51141968 56.24746704 7.51141968 56.24746704 7.45532227 57.97045898 C7.25 60.5625 7.25 60.5625 6.25 61.5625 C4.39712498 61.63476502 2.54166122 61.6463122 0.6875 61.625 C-0.32441406 61.61597656 -1.33632813 61.60695313 -2.37890625 61.59765625 C-3.16136719 61.58605469 -3.94382812 61.57445312 -4.75 61.5625 C-4.77312792 53.75674805 -4.79091738 45.95100405 -4.80181217 38.14522648 C-4.80704002 34.5210404 -4.81413587 30.8968777 -4.82543945 27.27270508 C-4.83627184 23.77790025 -4.84227758 20.28311796 -4.84487724 16.78829765 C-4.84763551 14.80010611 -4.85544688 12.81192369 -4.86329651 10.82374573 C-4.86337204 9.62257614 -4.86344757 8.42140656 -4.86352539 7.18383789 C-4.865746 6.12016495 -4.86796661 5.056492 -4.87025452 3.96058655 C-4.6744453 0.05580637 -4.08484108 0.61272616 0 0 Z " fill="#FFFFFF" transform="translate(535.75,624.4375)"/>
<path d="M0 0 C4.46995721 4.24072863 4.92480536 7.95799161 5.14526367 13.94482422 C5.15855039 15.48140651 5.16578605 17.01804932 5.16796875 18.5546875 C5.17296135 19.78434738 5.17296135 19.78434738 5.17805481 21.03884888 C5.18310393 22.76856935 5.18546376 24.49829951 5.18530273 26.22802734 C5.1874869 28.8592146 5.20565748 31.48998069 5.22460938 34.12109375 C5.22754428 35.80729024 5.22952843 37.49348871 5.23046875 39.1796875 C5.23765427 39.95907684 5.24483978 40.73846619 5.25224304 41.54147339 C5.22815758 47.36684358 4.84250273 52.71173048 1.0625 57.40625 C-3.56351134 59.81366406 -7.86282476 59.58068862 -13 59.5 C-13.98484375 59.51546875 -14.9696875 59.5309375 -15.984375 59.546875 C-20.33984578 59.52333191 -23.21833562 59.43868919 -27.0625 57.28125 C-31.44068397 52.12629146 -31.30751678 46.99475125 -31.30078125 40.53515625 C-31.30506638 39.62422714 -31.3093515 38.71329803 -31.31376648 37.77476501 C-31.31949698 35.85253733 -31.32001949 33.93028796 -31.31567383 32.00805664 C-31.3125145 29.07595637 -31.33598672 26.14486625 -31.36132812 23.21289062 C-31.3636014 21.3411471 -31.36430448 19.46940088 -31.36328125 17.59765625 C-31.372491 16.7256105 -31.38170074 15.85356476 -31.39118958 14.95509338 C-31.34660749 9.05537279 -30.54343239 4.54343239 -26.1875 0.1875 C-18.74509797 -3.8526611 -7.72469194 -2.79687122 0 0 Z M-18 11 C-19.50302481 14.00604962 -19.12994577 16.77665972 -19.1328125 20.125 C-19.13376923 20.8277002 -19.13472595 21.53040039 -19.13571167 22.25439453 C-19.13639238 23.74056081 -19.1345457 25.22673006 -19.13037109 26.71289062 C-19.12502125 28.99095319 -19.13031972 31.26881859 -19.13671875 33.546875 C-19.13605795 34.98958377 -19.13477675 36.43229242 -19.1328125 37.875 C-19.13168457 39.19242188 -19.13055664 40.50984375 -19.12939453 41.8671875 C-19.21832554 44.90495023 -19.21832554 44.90495023 -18 47 C-16.35425434 47.02688151 -14.70838587 47.04634123 -13.0625 47.0625 C-11.68771484 47.07990234 -11.68771484 47.07990234 -10.28515625 47.09765625 C-8.03406673 47.25949049 -8.03406673 47.25949049 -7 46 C-6.89912788 43.49075847 -6.86027968 41.00963616 -6.8671875 38.5 C-6.86623077 37.74912109 -6.86527405 36.99824219 -6.86428833 36.22460938 C-6.86360662 34.63411373 -6.86546028 33.04361533 -6.86962891 31.453125 C-6.87497733 29.01035345 -6.86968366 26.56776579 -6.86328125 24.125 C-6.86394203 22.58333293 -6.8652232 21.04166597 -6.8671875 19.5 C-6.86516327 18.76458984 -6.86313904 18.02917969 -6.86105347 17.27148438 C-6.56943487 13.84753658 -6.56943487 13.84753658 -8 11 C-9.68608966 10.92794489 -11.37500659 10.91613932 -13.0625 10.9375 C-13.98160156 10.94652344 -14.90070313 10.95554687 -15.84765625 10.96484375 C-16.55792969 10.97644531 -17.26820313 10.98804688 -18 11 Z " fill="#FFFFFF" transform="translate(427,627)"/>
<path d="M0 0 C0.71353638 0.00202423 1.42707275 0.00404846 2.16223145 0.00613403 C2.89091431 0.00517731 3.61959717 0.00422058 4.37036133 0.00323486 C5.91377855 0.00255318 7.45719861 0.00440666 9.00061035 0.00857544 C11.37095544 0.01392391 13.74111104 0.00863011 16.1114502 0.00222778 C17.60754437 0.00288857 19.10363842 0.00416973 20.59973145 0.00613403 C21.31326782 0.0041098 22.0268042 0.00208557 22.76196289 0 C27.76602953 0.02399462 27.76602953 0.02399462 28.88098145 1.13894653 C28.97949315 2.97010536 29.01070774 4.80514587 29.00598145 6.63894653 C29.00984863 8.13941528 29.00984863 8.13941528 29.01379395 9.67019653 C28.88098145 12.13894653 28.88098145 12.13894653 27.88098145 13.13894653 C26.24625263 13.22594996 24.60784089 13.24595716 22.9708252 13.23660278 C21.98146973 13.23338013 20.99211426 13.23015747 19.97277832 13.22683716 C18.93186035 13.21845825 17.89094238 13.21007935 16.81848145 13.20144653 C15.77369629 13.19693481 14.72891113 13.1924231 13.65246582 13.18777466 C11.0619469 13.1759458 8.47145723 13.15800972 5.88098145 13.13894653 C5.88098145 17.09894653 5.88098145 21.05894653 5.88098145 25.13894653 C11.82098145 25.13894653 17.76098145 25.13894653 23.88098145 25.13894653 C23.88098145 29.09894653 23.88098145 33.05894653 23.88098145 37.13894653 C17.94098145 37.13894653 12.00098145 37.13894653 5.88098145 37.13894653 C5.88098145 41.09894653 5.88098145 45.05894653 5.88098145 49.13894653 C7.45750488 49.12734497 9.03402832 49.11574341 10.6583252 49.10379028 C12.71170943 49.0944141 14.76509495 49.08531372 16.81848145 49.07644653 C17.85939941 49.06806763 18.90031738 49.05968872 19.97277832 49.05105591 C20.96213379 49.04783325 21.95148926 49.0446106 22.9708252 49.04129028 C23.88726807 49.03605347 24.80371094 49.03081665 25.7479248 49.02542114 C27.88098145 49.13894653 27.88098145 49.13894653 28.88098145 50.13894653 C28.88098145 53.76894653 28.88098145 57.39894653 28.88098145 61.13894653 C17.33098145 61.13894653 5.78098145 61.13894653 -6.11901855 61.13894653 C-6.13996387 53.34030713 -6.16000198 45.54176904 -6.17076874 37.74312592 C-6.17605852 34.11178896 -6.18313212 30.48047518 -6.19445801 26.84915161 C-6.2052904 23.35434679 -6.21129613 19.8595645 -6.2138958 16.36474419 C-6.21665406 14.37655264 -6.22446543 12.38837022 -6.23231506 10.40019226 C-6.23239059 9.19902267 -6.23246613 7.99785309 -6.23254395 6.76028442 C-6.23476456 5.69661148 -6.23698517 4.63293854 -6.23927307 3.53703308 C-6.01889715 -0.85765037 -3.87423673 0.01857706 0 0 Z " fill="#FFFFFF" transform="translate(264.1190185546875,624.8610534667969)"/>
<path d="M0 0 C1.1653125 0.00515625 2.330625 0.0103125 3.53125 0.015625 C4.6965625 0.01046875 5.861875 0.0053125 7.0625 0 C10.03125 0.265625 10.03125 0.265625 12.03125 2.265625 C12.80325317 4.61192322 12.80325317 4.61192322 13.54345703 7.58569336 C13.8235965 8.69702133 14.10373596 9.8083493 14.3923645 10.95335388 C14.68827484 12.15855179 14.98418518 13.36374969 15.2890625 14.60546875 C15.59697723 15.83850235 15.90489197 17.07153595 16.22213745 18.3419342 C16.8726404 20.95302064 17.52041697 23.56460264 18.16357422 26.17749023 C18.98803751 29.52628767 19.82176318 32.8726896 20.65875435 36.21837521 C21.45613926 39.40892707 22.24751848 42.60096362 23.0390625 45.79296875 C23.3390213 46.99614243 23.6389801 48.1993161 23.94802856 49.43894958 C24.22186371 50.55342972 24.49569885 51.66790985 24.77783203 52.81616211 C25.02050812 53.79830185 25.2631842 54.78044159 25.51321411 55.79234314 C26.03125 58.265625 26.03125 58.265625 26.03125 61.265625 C22.07125 61.265625 18.11125 61.265625 14.03125 61.265625 C13.04125 57.305625 12.05125 53.345625 11.03125 49.265625 C6.08125 49.265625 1.13125 49.265625 -3.96875 49.265625 C-4.95875 53.225625 -5.94875 57.185625 -6.96875 61.265625 C-10.92875 61.265625 -14.88875 61.265625 -18.96875 61.265625 C-16.28505602 48.97683375 -13.4663084 36.72527502 -10.50439453 24.50048828 C-10.05722849 22.6493597 -9.61331052 20.79744399 -9.17236328 18.94482422 C-8.5254291 16.22713358 -7.86930516 13.51181536 -7.2109375 10.796875 C-7.0150705 9.9668396 -6.81920349 9.1368042 -6.61740112 8.28161621 C-4.68799169 0.41945189 -4.68799169 0.41945189 0 0 Z M3.03125 18.265625 C2.36069715 21.20228726 1.69465947 24.13984859 1.03125 27.078125 C0.84046875 27.91150391 0.6496875 28.74488281 0.453125 29.60351562 C0.27265625 30.40595703 0.0921875 31.20839844 -0.09375 32.03515625 C-0.26132812 32.77354736 -0.42890625 33.51193848 -0.6015625 34.27270508 C-1.05934808 36.41960448 -1.05934808 36.41960448 -0.96875 39.265625 C2.00125 39.265625 4.97125 39.265625 8.03125 39.265625 C7.32968593 32.10967154 5.72339979 25.24707319 4.03125 18.265625 C3.70125 18.265625 3.37125 18.265625 3.03125 18.265625 Z " fill="#FFFFFF" transform="translate(592.96875,624.734375)"/>
<path d="M0 0 C1.1653125 0.00515625 2.330625 0.0103125 3.53125 0.015625 C4.6965625 0.01046875 5.861875 0.0053125 7.0625 0 C10.03125 0.265625 10.03125 0.265625 12.03125 2.265625 C12.80325317 4.61192322 12.80325317 4.61192322 13.54345703 7.58569336 C13.8235965 8.69702133 14.10373596 9.8083493 14.3923645 10.95335388 C14.68827484 12.15855179 14.98418518 13.36374969 15.2890625 14.60546875 C15.59697723 15.83850235 15.90489197 17.07153595 16.22213745 18.3419342 C16.8726404 20.95302064 17.52041697 23.56460264 18.16357422 26.17749023 C18.98803751 29.52628767 19.82176318 32.8726896 20.65875435 36.21837521 C21.45613926 39.40892707 22.24751848 42.60096362 23.0390625 45.79296875 C23.3390213 46.99614243 23.6389801 48.1993161 23.94802856 49.43894958 C24.22186371 50.55342972 24.49569885 51.66790985 24.77783203 52.81616211 C25.02050812 53.79830185 25.2631842 54.78044159 25.51321411 55.79234314 C26.03125 58.265625 26.03125 58.265625 26.03125 61.265625 C22.07125 61.265625 18.11125 61.265625 14.03125 61.265625 C13.04125 57.305625 12.05125 53.345625 11.03125 49.265625 C6.08125 49.265625 1.13125 49.265625 -3.96875 49.265625 C-4.95875 53.225625 -5.94875 57.185625 -6.96875 61.265625 C-10.92875 61.265625 -14.88875 61.265625 -18.96875 61.265625 C-16.28505602 48.97683375 -13.4663084 36.72527502 -10.50439453 24.50048828 C-10.05722849 22.6493597 -9.61331052 20.79744399 -9.17236328 18.94482422 C-8.5254291 16.22713358 -7.86930516 13.51181536 -7.2109375 10.796875 C-7.0150705 9.9668396 -6.81920349 9.1368042 -6.61740112 8.28161621 C-4.68799169 0.41945189 -4.68799169 0.41945189 0 0 Z M3.03125 18.265625 C2.36069715 21.20228726 1.69465947 24.13984859 1.03125 27.078125 C0.84046875 27.91150391 0.6496875 28.74488281 0.453125 29.60351562 C0.27265625 30.40595703 0.0921875 31.20839844 -0.09375 32.03515625 C-0.26132812 32.77354736 -0.42890625 33.51193848 -0.6015625 34.27270508 C-1.05934808 36.41960448 -1.05934808 36.41960448 -0.96875 39.265625 C2.00125 39.265625 4.97125 39.265625 8.03125 39.265625 C7.32968593 32.10967154 5.72339979 25.24707319 4.03125 18.265625 C3.70125 18.265625 3.37125 18.265625 3.03125 18.265625 Z " fill="#FFFFFF" transform="translate(498.96875,624.734375)"/>
<path d="M0 0 C1.60332791 -0.08121924 3.20784026 -0.13929134 4.8125 -0.1875 C6.15248047 -0.23970703 6.15248047 -0.23970703 7.51953125 -0.29296875 C10 0 10 0 11.59375 1.0625 C13.66496973 3.91618052 15.16592251 7.02045875 16.6875 10.1875 C17.00783203 10.84169922 17.32816406 11.49589844 17.65820312 12.16992188 C18.44428292 13.77727907 19.22288683 15.38828858 20 17 C20.55429687 15.85660156 21.10859375 14.71320312 21.6796875 13.53515625 C22.41114152 12.04411537 23.14292967 10.55323838 23.875 9.0625 C24.23980469 8.30775391 24.60460937 7.55300781 24.98046875 6.77539062 C25.51220703 5.69741211 25.51220703 5.69741211 26.0546875 4.59765625 C26.37937012 3.93258057 26.70405273 3.26750488 27.03857422 2.58227539 C28 1 28 1 30 0 C31.49756871 -0.09499503 32.99942932 -0.12987198 34.5 -0.125 C35.69109375 -0.12886719 35.69109375 -0.12886719 36.90625 -0.1328125 C39 0 39 0 41 1 C40.42762619 5.03005246 39.16095266 7.66645518 36.9609375 11.0703125 C30.31191907 21.24633997 30.31191907 21.24633997 28.23876953 32.81835938 C29.82613876 38.07001135 32.5936549 42.56002695 35.68652344 47.05712891 C37.40973749 49.60607638 38.7406291 52.28815419 40.0625 55.0625 C40.44535156 55.79597656 40.82820313 56.52945313 41.22265625 57.28515625 C42 59 42 59 42 61 C37.71 61 33.42 61 29 61 C24.545 52.585 24.545 52.585 20 44 C17.03 49.61 14.06 55.22 11 61 C6.71 61 2.42 61 -2 61 C-1.13648347 56.68241734 -0.25279008 54.21823016 1.7578125 50.4375 C2.30050781 49.39335938 2.84320313 48.34921875 3.40234375 47.2734375 C4.55248013 45.08791758 5.70875723 42.90561844 6.87109375 40.7265625 C7.41121094 39.68242188 7.95132812 38.63828125 8.5078125 37.5625 C9.00941895 36.61503906 9.51102539 35.66757812 10.02783203 34.69140625 C11.48767776 30.64988456 10.5933474 28.306229 8.86083984 24.4921875 C8.39887207 23.62851562 7.9369043 22.76484375 7.4609375 21.875 C6.96335937 20.92109375 6.46578125 19.9671875 5.953125 18.984375 C4.89932953 16.99155386 3.83940394 15.00196247 2.7734375 13.015625 C2.2784375 12.06171875 1.7834375 11.1078125 1.2734375 10.125 C0.81372559 9.26132812 0.35401367 8.39765625 -0.11962891 7.5078125 C-1.15159102 4.56817999 -0.86912947 2.95041366 0 0 Z " fill="#FFFFFF" transform="translate(301,625)"/>
<path d="M0 0 C3.96 0 7.92 0 12 0 C15.91194626 7.48858285 19.08057523 15.07407231 22 23 C22.2673999 22.3387915 22.5347998 21.67758301 22.81030273 20.99633789 C24.0167498 18.01732351 25.22707088 15.03989848 26.4375 12.0625 C26.85837891 11.02158203 27.27925781 9.98066406 27.71289062 8.90820312 C28.11572266 7.91884766 28.51855469 6.92949219 28.93359375 5.91015625 C29.30540771 4.99371338 29.67722168 4.07727051 30.06030273 3.13305664 C31 1 31 1 32 0 C34.01964199 -0.07244053 36.04167124 -0.08377188 38.0625 -0.0625 C39.71958984 -0.04896484 39.71958984 -0.04896484 41.41015625 -0.03515625 C42.26480469 -0.02355469 43.11945313 -0.01195312 44 0 C43.4782085 5.23004 42.15973306 9.39199992 39.875 14.13671875 C39.24098775 15.51882889 38.61042445 16.90252518 37.98291016 18.28759766 C37.65736145 19.00586731 37.33181274 19.72413696 36.99639893 20.46417236 C29.54977059 37.08030286 26.98208167 50.64838676 28 69 C24.04 69 20.08 69 16 69 C16.10183594 67.32421875 16.20367187 65.6484375 16.30859375 63.921875 C16.89799454 43.29875613 11.13125687 27.61907105 2.26123047 9.20109558 C0.65063477 5.79700854 0 3.85179103 0 0 Z " fill="#FFFFFF" transform="translate(347,617)"/>
<path d="M0 0 C0.89589844 -0.01417969 1.79179687 -0.02835938 2.71484375 -0.04296875 C5.0625 0.1875 5.0625 0.1875 7.0625 2.1875 C7.31646729 4.20317078 7.31646729 4.20317078 7.32128906 6.7097168 C7.32759338 7.64796799 7.33389771 8.58621918 7.34039307 9.55290222 C7.3363446 10.57056168 7.33229614 11.58822113 7.328125 12.63671875 C7.33099518 14.20568657 7.33099518 14.20568657 7.33392334 15.80635071 C7.33528661 18.02479288 7.33158033 20.243243 7.32324219 22.46166992 C7.31259828 25.84377221 7.32310507 29.22533679 7.3359375 32.60742188 C7.33461488 34.763022 7.33205037 36.91862179 7.328125 39.07421875 C7.33217346 40.08175705 7.33622192 41.08929535 7.34039307 42.12736511 C7.25889818 54.45971516 7.25889818 54.45971516 3.125 59.59375 C-1.50101134 62.00116406 -5.80032476 61.76818862 -10.9375 61.6875 C-11.92234375 61.70296875 -12.9071875 61.7184375 -13.921875 61.734375 C-18.27734578 61.71083191 -21.15583562 61.62618919 -25 59.46875 C-28.8101629 54.98259046 -29.19709032 51.23094031 -29.125 45.4375 C-29.11855469 44.28765625 -29.11210937 43.1378125 -29.10546875 41.953125 C-28.9375 39.1875 -28.9375 39.1875 -27.9375 38.1875 C-26.10634117 38.08898829 -24.27130067 38.05777371 -22.4375 38.0625 C-21.4371875 38.05992187 -20.436875 38.05734375 -19.40625 38.0546875 C-16.9375 38.1875 -16.9375 38.1875 -15.9375 39.1875 C-15.70557135 40.70219448 -15.52534762 42.22504562 -15.375 43.75 C-15.29121094 44.57628906 -15.20742188 45.40257812 -15.12109375 46.25390625 C-15.06050781 46.89199219 -14.99992187 47.53007813 -14.9375 48.1875 C-12.2975 48.1875 -9.6575 48.1875 -6.9375 48.1875 C-6.92719254 47.60090103 -6.91688507 47.01430206 -6.90626526 46.40992737 C-6.79842806 40.3271213 -6.68381244 34.24447026 -6.56518555 28.16186523 C-6.52176335 25.88911164 -6.48009384 23.61632387 -6.44018555 21.34350586 C-6.38265881 18.08436768 -6.31891448 14.82540269 -6.25390625 11.56640625 C-6.23719376 10.54349991 -6.22048126 9.52059357 -6.20326233 8.46669006 C-6.18331711 7.52579025 -6.16337189 6.58489044 -6.14282227 5.61547852 C-6.12727798 4.78274918 -6.1117337 3.95001984 -6.09571838 3.09205627 C-5.77595391 -0.75711364 -3.31394458 0.02377292 0 0 Z " fill="#FFFFFF" transform="translate(467.9375,624.8125)"/>
<path d="M0 0 C3.27954102 -0.28710938 3.27954102 -0.28710938 7 0 C8.98803711 1.92773438 8.98803711 1.92773438 10.52734375 4.59375 C11.09130859 5.54121094 11.65527344 6.48867188 12.23632812 7.46484375 C12.79771484 8.46644531 13.35910156 9.46804688 13.9375 10.5 C14.52595703 11.50160156 15.11441406 12.50320313 15.72070312 13.53515625 C17.17080771 16.01094457 18.59542494 18.49818979 20 21 C20.04898438 19.90300781 20.09796875 18.80601562 20.1484375 17.67578125 C20.22350591 16.22133075 20.29905197 14.76690484 20.375 13.3125 C20.42140625 12.2306543 20.42140625 12.2306543 20.46875 11.12695312 C20.69335587 7.02789606 21.17740909 3.75631541 23 0 C24.66611905 -0.042721 26.33382885 -0.04063832 28 0 C29.71402765 1.71402765 29.12810569 3.88357979 29.13894653 6.16888428 C29.1369223 6.89174622 29.13489807 7.61460815 29.1328125 8.359375 C29.13424759 9.47146332 29.13424759 9.47146332 29.13571167 10.60601807 C29.13639372 12.17972905 29.13453773 13.75344282 29.13037109 15.32714844 C29.12505326 17.72597677 29.13029951 20.12461527 29.13671875 22.5234375 C29.13605738 24.05208374 29.134775 25.58072987 29.1328125 27.109375 C29.13483673 27.82414001 29.13686096 28.53890503 29.13894653 29.27532959 C29.12172018 32.97563863 28.88162337 36.40171594 28 40 C22.44836957 40.3701087 22.44836957 40.3701087 20.45581055 38.7253418 C18.96304773 36.95620632 17.73334339 35.1775055 16.51953125 33.20703125 C16.07802734 32.49482422 15.63652344 31.78261719 15.18164062 31.04882812 C14.50391602 29.9418457 14.50391602 29.9418457 13.8125 28.8125 C13.34908203 28.06291016 12.88566406 27.31332031 12.40820312 26.54101562 C11.26845974 24.69627633 10.13373645 22.84843711 9 21 C8.95101563 22.27617188 8.90203125 23.55234375 8.8515625 24.8671875 C8.77653809 26.53648072 8.70099012 28.20575046 8.625 29.875 C8.57859375 31.13763672 8.57859375 31.13763672 8.53125 32.42578125 C8.47324219 33.63427734 8.47324219 33.63427734 8.4140625 34.8671875 C8.3826416 35.61081543 8.3512207 36.35444336 8.31884766 37.12060547 C8 39 8 39 6 41 C3.4375 41.1875 3.4375 41.1875 1 41 C0 40 0 40 -0.11352539 36.21459961 C-0.11336622 34.52717271 -0.10766917 32.83974095 -0.09765625 31.15234375 C-0.0962413 30.2659169 -0.09482635 29.37949005 -0.09336853 28.46620178 C-0.08775215 25.62326746 -0.07519691 22.78041069 -0.0625 19.9375 C-0.05748711 18.01497509 -0.05292384 16.09244896 -0.04882812 14.16992188 C-0.03777741 9.44658451 -0.02050183 4.72330542 0 0 Z " fill="#FFFFFF" transform="translate(500,713)"/>
<path d="M0 0 C2.11660923 2.34645408 3.7312985 4.93350086 5.375 7.625 C6.04982422 8.68460938 6.04982422 8.68460938 6.73828125 9.765625 C7.84048173 11.50100449 8.9223134 13.24929173 10 15 C10.66 9.72 11.32 4.44 12 -1 C13.98 -1 15.96 -1 18 -1 C20.73576772 1.73576772 19.18567836 10.06300977 19.1875 13.75 C19.19974609 15.0390625 19.21199219 16.328125 19.22460938 17.65625 C19.22750977 19.52023437 19.22750977 19.52023437 19.23046875 21.421875 C19.23457764 22.56237305 19.23868652 23.70287109 19.24291992 24.87792969 C19.00068343 27.99121634 18.32478719 30.19225187 17 33 C13.80872486 33.0047917 11.70965383 32.69318507 9.37988281 30.41748047 C7.71299779 28.30599045 6.15535081 26.14989604 4.625 23.9375 C4.07972656 23.17888672 3.53445313 22.42027344 2.97265625 21.63867188 C1.63255138 19.76957825 0.3095253 17.89058346 -1 16 C-1.06058594 17.14339844 -1.12117188 18.28679688 -1.18359375 19.46484375 C-1.26798428 20.95574305 -1.35263302 22.44662775 -1.4375 23.9375 C-1.49647461 25.06961914 -1.49647461 25.06961914 -1.55664062 26.22460938 C-1.88671875 31.88671875 -1.88671875 31.88671875 -3 33 C-5.5 33.125 -5.5 33.125 -8 33 C-9 32 -9 32 -9.11352539 28.85717773 C-9.11336633 27.46597303 -9.10767506 26.07476239 -9.09765625 24.68359375 C-9.0962413 23.95253922 -9.09482635 23.22148468 -9.09336853 22.46827698 C-9.08775408 20.12464368 -9.07519922 17.78110461 -9.0625 15.4375 C-9.05748686 13.85221492 -9.05292363 12.26692834 -9.04882812 10.68164062 C-9.03777997 6.7877239 -9.02050572 2.89387795 -9 -1 C-5.04873515 -2.31708828 -3.72982692 -1.82326527 0 0 Z " fill="#FFFFFF" transform="translate(308,721)"/>
<path d="M0 0 C2.33294775 -0.04241723 4.66702567 -0.04092937 7 0 C9.04698414 2.04698414 8.70045693 6.30411241 9 9 C9.70962891 8.02546875 9.70962891 8.02546875 10.43359375 7.03125 C15.77054227 0.28984135 15.77054227 0.28984135 19.53515625 -0.59765625 C21.75360036 -0.56601442 23.8209365 -0.40857441 26 0 C25.65986985 5.44208234 22.29703472 8.93668198 19 13 C20.1225346 15.27208206 21.24791521 17.54267645 22.375 19.8125 C22.69210937 20.45509766 23.00921875 21.09769531 23.3359375 21.75976562 C24.76458611 24.63194461 26.21785473 27.3267821 28 30 C27.625 32.1875 27.625 32.1875 27 34 C23.875 34.5625 23.875 34.5625 20 34 C17.48910451 31.29239841 15.77770034 28.2214085 14 25 C13.38125 23.989375 12.7625 22.97875 12.125 21.9375 C11.75375 21.298125 11.3825 20.65875 11 20 C8.89172945 23.16240582 8.66182535 24.50657469 8.375 28.1875 C8.30023438 29.08855469 8.22546875 29.98960937 8.1484375 30.91796875 C8.09945313 31.60503906 8.05046875 32.29210937 8 33 C5 34 5 34 2.34301758 33.00463867 C0 31 0 31 -0.56762695 27.8137207 C-0.54144287 26.53070068 -0.51525879 25.24768066 -0.48828125 23.92578125 C-0.48120651 23.2419487 -0.47413177 22.55811615 -0.46684265 21.8535614 C-0.43888004 19.67208841 -0.37615064 17.49319506 -0.3125 15.3125 C-0.28741897 13.8327194 -0.26460544 12.35289851 -0.24414062 10.87304688 C-0.18905135 7.24786137 -0.10277108 3.62418247 0 0 Z " fill="#FFFFFF" transform="translate(335,720)"/>
<path d="M0 0 C3.19929842 2.93203516 5.6026267 6.40394005 8 10 C8.44730469 9.36191406 8.89460937 8.72382812 9.35546875 8.06640625 C9.96003906 7.24011719 10.56460938 6.41382813 11.1875 5.5625 C11.77917969 4.73878906 12.37085938 3.91507813 12.98046875 3.06640625 C15.35595076 0.63578732 16.64538443 0.2086603 20 0 C20.99 0.33 21.98 0.66 23 1 C22.32759325 6.36964822 19.64941609 9.42792285 16.3984375 13.59765625 C14.81980618 15.81959202 14.81980618 15.81959202 15.06640625 17.9609375 C16.78728478 21.71950903 19.19883306 25.02321924 21.50390625 28.44140625 C23 31 23 31 23 34 C20.3125 34.8125 20.3125 34.8125 17 35 C14.3125 32.8125 14.3125 32.8125 12 30 C11.1028125 28.9171875 11.1028125 28.9171875 10.1875 27.8125 C9 26 9 26 9 24 C8.34 24 7.68 24 7 24 C6.731875 24.721875 6.46375 25.44375 6.1875 26.1875 C3.86795491 31.68115942 3.86795491 31.68115942 2 34 C-4.03529412 35.48235294 -4.03529412 35.48235294 -7 34 C-6.20250714 29.15807908 -3.16429903 25.68405336 -0.3984375 21.75390625 C1.20430428 19.13888936 1.20430428 19.13888936 0.93359375 16.47265625 C-0.17611956 13.53354109 -1.66788773 11.3781847 -3.5625 8.875 C-7 4.32394366 -7 4.32394366 -7 1 C-4.26760135 -0.36619933 -3.04371875 -0.55340341 0 0 Z " fill="#FFFFFF" transform="translate(573,719)"/>
<path d="M0 0 C1 1 1 1 1.09765625 3.72265625 C1.08605469 4.82480469 1.07445312 5.92695312 1.0625 7.0625 C1.05347656 8.16722656 1.04445313 9.27195312 1.03515625 10.41015625 C1.02355469 11.26480469 1.01195312 12.11945312 1 13 C6.445 12.505 6.445 12.505 12 12 C11.938125 10.411875 11.87625 8.82375 11.8125 7.1875 C11.63016055 2.50745413 11.63016055 2.50745413 13.34375 0.15625 C15 -1 15 -1 17.6875 -0.6875 C18.450625 -0.460625 19.21375 -0.23375 20 0 C20.96674186 3.9743832 21.04657372 7.53337291 20.87890625 11.61328125 C20.83056641 12.86044922 20.78222656 14.10761719 20.73242188 15.39257812 C20.67634766 16.68615234 20.62027344 17.97972656 20.5625 19.3125 C20.51029297 20.62541016 20.45808594 21.93832031 20.40429688 23.29101562 C20.2748336 26.52759739 20.13987458 29.76385421 20 33 C18.00045254 33.04254356 15.99958364 33.04080783 14 33 C13 32 13 32 12.90234375 29.27734375 C12.91394531 28.17519531 12.92554688 27.07304688 12.9375 25.9375 C12.94652344 24.83277344 12.95554687 23.72804688 12.96484375 22.58984375 C12.97644531 21.73519531 12.98804688 20.88054688 13 20 C12.13375 20.185625 11.2675 20.37125 10.375 20.5625 C6.94847372 21.00667933 4.35787629 20.71954492 1 20 C1 23.96 1 27.92 1 32 C-0.32 32.66 -1.64 33.32 -3 34 C-3.99 33.67 -4.98 33.34 -6 33 C-7.48679725 30.02640551 -7.11112605 27.33700821 -7.09765625 24.0234375 C-7.09553383 22.99556625 -7.09553383 22.99556625 -7.09336853 21.94692993 C-7.08776675 19.75624239 -7.07521406 17.5656567 -7.0625 15.375 C-7.05748522 13.89062648 -7.05292228 12.40625135 -7.04882812 10.921875 C-7.03779677 7.28121685 -7.02053099 3.64061836 -7 0 C-4.31633121 -1.3418344 -2.84719317 -0.73004953 0 0 Z " fill="#FFFFFF" transform="translate(422,720)"/>
<path d="M0 0 C2.97 0.495 2.97 0.495 6 1 C6.33 5.29 6.66 9.58 7 14 C10.3 13.67 13.6 13.34 17 13 C17.33 9.37 17.66 5.74 18 2 C23 0 23 0 26 1 C26 11.89 26 22.78 26 34 C23.69 34 21.38 34 19 34 C18.90912109 32.95199219 18.90912109 32.95199219 18.81640625 31.8828125 C18.69072266 30.51769531 18.69072266 30.51769531 18.5625 29.125 C18.48128906 28.22007812 18.40007812 27.31515625 18.31640625 26.3828125 C18.13010715 23.98889139 18.13010715 23.98889139 17 22 C15.906875 22.020625 14.81375 22.04125 13.6875 22.0625 C10 22 10 22 7 21 C6.67 25.29 6.34 29.58 6 34 C4.02 34.495 4.02 34.495 2 35 C1.01 34.34 0.02 33.68 -1 33 C-1.27980316 30.52834152 -1.37255486 28.31021259 -1.328125 25.83984375 C-1.32625183 25.13477188 -1.32437866 24.42970001 -1.32244873 23.70326233 C-1.31572481 22.2128527 -1.30180341 20.72246081 -1.28125 19.23217773 C-1.25007532 16.94303107 -1.24027853 14.65457232 -1.234375 12.36523438 C-1.22520598 10.91926238 -1.21483053 9.47329743 -1.203125 8.02734375 C-1.19887512 7.33881821 -1.19462524 6.65029266 -1.19024658 5.94090271 C-1.11716369 1.11716369 -1.11716369 1.11716369 0 0 Z " fill="#FFFFFF" transform="translate(248,719)"/>
<path d="M0 0 C7.92 0 15.84 0 24 0 C25 5 25 5 24 7 C18.72 7 13.44 7 8 7 C7.67 8.98 7.34 10.96 7 13 C7.88751953 12.98259766 7.88751953 12.98259766 8.79296875 12.96484375 C13.00231785 12.91677614 16.8922333 12.93993117 21 14 C21 15.98 21 17.96 21 20 C18.23547967 21.38226016 15.9538637 21.09525387 12.875 21.0625 C11.77929688 21.05347656 10.68359375 21.04445313 9.5546875 21.03515625 C8.71164062 21.02355469 7.86859375 21.01195312 7 21 C7 22.65 7 24.3 7 26 C8.05960938 25.97679687 9.11921875 25.95359375 10.2109375 25.9296875 C11.5989513 25.91093056 12.9869727 25.89273028 14.375 25.875 C15.42300781 25.84986328 15.42300781 25.84986328 16.4921875 25.82421875 C18.32897486 25.80655733 20.16601963 25.89696739 22 26 C24 28 24 28 24.125 30.625 C24.08375 31.40875 24.0425 32.1925 24 33 C18.73714164 33.92548953 13.94440937 34.01685336 8.625 33.625 C7.90183594 33.58117187 7.17867187 33.53734375 6.43359375 33.4921875 C1.13425868 33.13425868 1.13425868 33.13425868 0 32 C-0.0883967 29.6243148 -0.11530305 27.27791326 -0.09765625 24.90234375 C-0.0962413 24.19348526 -0.09482635 23.48462677 -0.09336853 22.75428772 C-0.08775443 20.48198288 -0.07519963 18.20977525 -0.0625 15.9375 C-0.05748681 14.40039204 -0.05292359 12.86328255 -0.04882812 11.32617188 C-0.0386297 7.55071333 -0.01905732 3.77546596 0 0 Z " fill="#FFFFFF" transform="translate(537,720)"/>
<path d="M0 0 C7.92 0 15.84 0 24 0 C24 1.98 24 3.96 24 6 C23 7 23 7 19.40234375 7.09765625 C17.91403133 7.0909822 16.42573568 7.07902183 14.9375 7.0625 C14.17888672 7.05798828 13.42027344 7.05347656 12.63867188 7.04882812 C10.75908129 7.0370068 8.87953101 7.01907078 7 7 C7 8.98 7 10.96 7 13 C7.60328125 12.98839844 8.2065625 12.97679687 8.828125 12.96484375 C10.02695312 12.95130859 10.02695312 12.95130859 11.25 12.9375 C12.43335938 12.92009766 12.43335938 12.92009766 13.640625 12.90234375 C15.90691002 12.99614694 17.8288895 13.36758937 20 14 C20.33 15.65 20.66 17.3 21 19 C17.57905758 21.28062828 16.31812778 21.21925007 12.3125 21.125 C10.82169922 21.09792969 10.82169922 21.09792969 9.30078125 21.0703125 C8.54152344 21.04710937 7.78226562 21.02390625 7 21 C7 22.65 7 24.3 7 26 C8.05960937 25.96519531 9.11921875 25.93039062 10.2109375 25.89453125 C11.59894252 25.86639601 12.98696463 25.83909557 14.375 25.8125 C15.07367188 25.78736328 15.77234375 25.76222656 16.4921875 25.73632812 C18.5234375 25.70703125 18.5234375 25.70703125 22 26 C24 29 24 29 24 33 C17.51479008 36.24260496 7.0233613 33.87015096 0 33 C-1.35361775 26.17175048 -0.89104878 19.48468295 -0.5625 12.5625 C-0.51029297 11.35400391 -0.45808594 10.14550781 -0.40429688 8.90039062 C-0.27529457 5.93333756 -0.13842845 2.96662823 0 0 Z " fill="#FFFFFF" transform="translate(451,720)"/>
<path d="M0 0 C1.00023193 0.00523682 2.00046387 0.01047363 3.03100586 0.01586914 C4.1105957 0.0190918 5.19018555 0.02231445 6.30249023 0.02563477 C8.00695312 0.03820312 8.00695312 0.03820312 9.74584961 0.05102539 C11.45611328 0.05779297 11.45611328 0.05779297 13.20092773 0.06469727 C16.02845312 0.07652792 18.85587601 0.09301129 21.68334961 0.11352539 C22.80834961 2.42602539 22.80834961 2.42602539 23.68334961 5.11352539 C22.69334961 6.59852539 22.69334961 6.59852539 21.68334961 8.11352539 C19.04334961 8.11352539 16.40334961 8.11352539 13.68334961 8.11352539 C13.68334961 18.67352539 13.68334961 29.23352539 13.68334961 40.11352539 C10.21834961 40.60852539 10.21834961 40.60852539 6.68334961 41.11352539 C5.68334961 40.11352539 5.68334961 40.11352539 5.56982422 37.0625 C5.56998326 35.71361268 5.57567349 34.36471925 5.58569336 33.01586914 C5.58710831 32.30701065 5.58852325 31.59815216 5.58998108 30.86781311 C5.59559518 28.59550827 5.60814998 26.32330064 5.62084961 24.05102539 C5.6258628 22.51391743 5.63042602 20.97680794 5.63452148 19.43969727 C5.64556919 15.66426897 5.6628432 11.88891368 5.68334961 8.11352539 C4.38397461 8.13415039 3.08459961 8.15477539 1.74584961 8.17602539 C0.39169328 8.19751994 -0.96421122 8.18500738 -2.31665039 8.11352539 C-3.31665039 7.11352539 -3.31665039 7.11352539 -3.44165039 4.11352539 C-3.27694449 0.16058375 -3.27694449 0.16058375 0 0 Z " fill="#FFFFFF" transform="translate(218.316650390625,712.886474609375)"/>
<path d="M0 0 C2.41430664 -0.26464844 2.41430664 -0.26464844 5.41015625 -0.109375 C7.01793945 -0.03396484 7.01793945 -0.03396484 8.65820312 0.04296875 C9.78162109 0.11128906 10.90503906 0.17960938 12.0625 0.25 C13.18978516 0.30285156 14.31707031 0.35570312 15.47851562 0.41015625 C23.84324901 0.84324901 23.84324901 0.84324901 25 2 C25.04063832 3.66617115 25.042721 5.33388095 25 7 C21.57602277 9.10706291 18.96057533 9.08680713 15 9 C15.05329468 9.86951294 15.05329468 9.86951294 15.10766602 10.7565918 C15.26591975 13.39987836 15.414297 16.04363165 15.5625 18.6875 C15.61857422 19.59951172 15.67464844 20.51152344 15.73242188 21.45117188 C15.78076172 22.33740234 15.82910156 23.22363281 15.87890625 24.13671875 C15.9260376 24.94842529 15.97316895 25.76013184 16.02172852 26.59643555 C15.99838228 29.1789485 15.5804792 31.48849909 15 34 C12.69 34 10.38 34 8 34 C7.67 26.08 7.34 18.16 7 10 C4.36 9.34 1.72 8.68 -1 8 C-1.625 5.6875 -1.625 5.6875 -2 3 C-1.34 2.01 -0.68 1.02 0 0 Z " fill="#FFFFFF" transform="translate(601,719)"/>
<path d="M0 0 C2.41430664 -0.26464844 2.41430664 -0.26464844 5.41015625 -0.109375 C7.01793945 -0.03396484 7.01793945 -0.03396484 8.65820312 0.04296875 C9.78162109 0.11128906 10.90503906 0.17960938 12.0625 0.25 C13.18978516 0.30285156 14.31707031 0.35570312 15.47851562 0.41015625 C23.84324901 0.84324901 23.84324901 0.84324901 25 2 C25.04063832 3.66617115 25.042721 5.33388095 25 7 C21.57602277 9.10706291 18.96057533 9.08680713 15 9 C15.05329468 9.86951294 15.05329468 9.86951294 15.10766602 10.7565918 C15.26591975 13.39987836 15.414297 16.04363165 15.5625 18.6875 C15.61857422 19.59951172 15.67464844 20.51152344 15.73242188 21.45117188 C15.78076172 22.33740234 15.82910156 23.22363281 15.87890625 24.13671875 C15.9260376 24.94842529 15.97316895 25.76013184 16.02172852 26.59643555 C15.99838228 29.1789485 15.5804792 31.48849909 15 34 C12.69 34 10.38 34 8 34 C7.67 26.08 7.34 18.16 7 10 C4.36 9.34 1.72 8.68 -1 8 C-1.625 5.6875 -1.625 5.6875 -2 3 C-1.34 2.01 -0.68 1.02 0 0 Z " fill="#FFFFFF" transform="translate(385,719)"/>
<path d="M0 0 C0 10.89 0 21.78 0 33 C-6 34 -6 34 -8 33 C-8.02920143 28.81251481 -8.04686646 24.62505609 -8.0625 20.4375 C-8.07087891 19.25607422 -8.07925781 18.07464844 -8.08789062 16.85742188 C-8.1213412 4.9155649 -8.1213412 4.9155649 -7 0 C-5 -1 -5 -1 0 0 Z " fill="#FFFFFF" transform="translate(290,720)"/>
</svg>
